<svg width="40" height="40" viewBox="0 0 40 40" fill="none" xmlns="http://www.w3.org/2000/svg">
<g filter="url(#filter0_d_2_335)">
<path fill-rule="evenodd" clip-rule="evenodd" d="M12.3463 11.3335C10.1386 11.3335 8.33301 13.1391 8.33301 15.3468V19.4478C9.05655 19.1595 9.84415 19.0002 10.6663 19.0002C14.1653 19.0002 16.9997 21.8345 16.9997 25.3335C16.9997 26.4104 16.7261 27.4384 16.2355 28.3335H27.653C29.8607 28.3335 31.6663 26.5279 31.6663 24.3202V23.7335H30.133C28.2536 23.7335 26.4294 22.3592 26.257 20.3291C26.1493 19.1795 26.587 18.1055 27.3454 17.3601C28.0276 16.6644 28.9628 16.2668 29.973 16.2668H31.6663V15.3468C31.6663 13.1391 29.8607 11.3335 27.653 11.3335H12.3463ZM6.33301 15.3468C6.33301 12.0346 9.03404 9.3335 12.3463 9.3335H27.653C30.9653 9.3335 33.6663 12.0346 33.6663 15.3468V17.2668C33.6663 17.8191 33.2186 18.2668 32.6663 18.2668H29.973C29.4943 18.2668 29.0732 18.4525 28.7695 18.7644L28.7515 18.7824C28.3968 19.1287 28.1986 19.6217 28.2485 20.1453L28.2496 20.1571L28.2496 20.1571C28.3201 21.0037 29.1342 21.7335 30.133 21.7335H32.6663C33.2186 21.7335 33.6663 22.1812 33.6663 22.7335V24.3202C33.6663 27.6324 30.9653 30.3335 27.653 30.3335H14.173C13.7526 30.3335 13.377 30.0705 13.2333 29.6754C13.0895 29.2803 13.2083 28.8375 13.5304 28.5673C13.8543 28.2956 14.1399 27.958 14.3626 27.5763L14.3752 27.5553C14.7723 26.9112 14.9997 26.146 14.9997 25.3335C14.9997 22.9391 13.0607 21.0002 10.6663 21.0002C9.65096 21.0002 8.70843 21.356 7.95632 21.9555C7.65597 22.1949 7.24505 22.2411 6.89902 22.0744C6.55299 21.9077 6.33301 21.5576 6.33301 21.1735V15.3468Z" fill="#A4A4A4"/>
<path fill-rule="evenodd" clip-rule="evenodd" d="M22.7997 5.26675C22.7997 4.19006 21.7236 3.45088 20.7274 3.82847L10.1402 7.82867C9.05121 8.24094 8.33301 9.28069 8.33301 10.4534V16.5467C8.33301 17.099 7.88529 17.5467 7.33301 17.5467C6.78072 17.5467 6.33301 17.099 6.33301 16.5467V10.4534C6.33301 8.45302 7.56172 6.66594 9.43244 5.9581L20.0186 1.9583C22.3291 1.08255 24.7997 2.79678 24.7997 5.26675V10.3334C24.7997 10.8857 24.352 11.3334 23.7997 11.3334C23.2474 11.3334 22.7997 10.8857 22.7997 10.3334V5.26675Z" fill="#A4A4A4"/>
<path fill-rule="evenodd" clip-rule="evenodd" d="M29.9714 18.2671C29.4927 18.2671 29.0716 18.4527 28.7679 18.7647L28.7499 18.7826C28.3952 19.1289 28.197 19.622 28.2469 20.1456L28.248 20.1573L28.248 20.1574C28.3185 21.004 29.1326 21.7337 30.1314 21.7337H32.7218C32.9373 21.7198 33.0781 21.5513 33.0781 21.3738V18.627C33.0781 18.4495 32.9373 18.281 32.7218 18.2671H29.9714ZM27.3438 17.3604C28.026 16.6646 28.9612 16.2671 29.9714 16.2671H32.7447C32.7566 16.2671 32.7685 16.2673 32.7804 16.2677C34.0511 16.3131 35.0781 17.3413 35.0781 18.627V21.3738C35.0781 22.6595 34.0511 23.6877 32.7804 23.7331C32.7685 23.7335 32.7566 23.7337 32.7447 23.7337H30.1314C28.252 23.7337 26.4278 22.3595 26.2554 20.3293C26.1477 19.1797 26.5854 18.1058 27.3438 17.3604Z" fill="#A4A4A4"/>
<path fill-rule="evenodd" clip-rule="evenodd" d="M12.333 16C12.333 15.4477 12.7807 15 13.333 15H22.6663C23.2186 15 23.6663 15.4477 23.6663 16C23.6663 16.5523 23.2186 17 22.6663 17H13.333C12.7807 17 12.333 16.5523 12.333 16Z" fill="#A4A4A4"/>
<path fill-rule="evenodd" clip-rule="evenodd" d="M10.6663 21C9.65096 21 8.70843 21.3558 7.95632 21.9553L7.95458 21.9567L7.95458 21.9567C6.96101 22.7451 6.33301 23.9661 6.33301 25.3333C6.33301 26.1458 6.56036 26.9111 6.95751 27.5551L6.9659 27.5687L6.96579 27.5688C7.7122 28.8236 9.08517 29.6667 10.6663 29.6667C11.7633 29.6667 12.7523 29.2666 13.504 28.59C13.5127 28.5823 13.5215 28.5746 13.5304 28.5671C13.8543 28.2955 14.1399 27.9579 14.3626 27.5761L14.3752 27.5551C14.7723 26.9111 14.9997 26.1458 14.9997 25.3333C14.9997 22.939 13.0607 21 10.6663 21ZM6.71056 20.3907C7.79832 19.5239 9.17545 19 10.6663 19C14.1653 19 16.9997 21.8344 16.9997 25.3333C16.9997 26.5165 16.6694 27.6407 16.0839 28.5945C15.7505 29.1633 15.323 29.6713 14.8291 30.0882C13.7157 31.0846 12.2566 31.6667 10.6663 31.6667C8.35705 31.6667 6.34549 30.4328 5.25098 28.5981C4.66408 27.6436 4.33301 26.518 4.33301 25.3333C4.33301 23.341 5.25131 21.549 6.71056 20.3907Z" fill="#A4A4A4"/>
<path fill-rule="evenodd" clip-rule="evenodd" d="M13.482 23.3469C13.857 23.7524 13.8323 24.385 13.4269 24.76L10.5869 27.3867C10.1925 27.7514 9.58056 27.7394 9.20077 27.3596L7.88078 26.0396C7.49026 25.6491 7.49026 25.0159 7.88078 24.6254C8.27131 24.2349 8.90447 24.2349 9.295 24.6254L9.93494 25.2654L12.0689 23.2917C12.4744 22.9167 13.107 22.9414 13.482 23.3469Z" fill="#A4A4A4"/>
</g>
<defs>
<filter id="filter0_d_2_335" x="0" y="0" width="40" height="40" filterUnits="userSpaceOnUse" color-interpolation-filters="sRGB">
<feFlood flood-opacity="0" result="BackgroundImageFix"/>
<feColorMatrix in="SourceAlpha" type="matrix" values="0 0 0 0 0 0 0 0 0 0 0 0 0 0 0 0 0 0 127 0" result="hardAlpha"/>
<feOffset dy="4"/>
<feGaussianBlur stdDeviation="2"/>
<feComposite in2="hardAlpha" operator="out"/>
<feColorMatrix type="matrix" values="0 0 0 0 0 0 0 0 0 0 0 0 0 0 0 0 0 0 0.25 0"/>
<feBlend mode="normal" in2="BackgroundImageFix" result="effect1_dropShadow_2_335"/>
<feBlend mode="normal" in="SourceGraphic" in2="effect1_dropShadow_2_335" result="shape"/>
</filter>
</defs>
</svg>
